PathFileType	4	(X/Y/Z)	temp_trc_file_rotated.trc
DataRate	CameraRate	NumFrames	NumMarkers	Units	OrigDataRate	OrigDataStartFrame	OrigNumFrames
250.000000	250.000000	11	40	mm	250.000000	201	806
Frame#	Time	C7			T10			LTH3			RPSI			RTH3			LTB2			LCAL			RMT2			RTB2			RCAL			RMT1			LMT2			LTH2			RTH1			LMT1			LTB1			RTH2			LTB3			LTH1			RTB1			RTB3			CLAV			LASI			STRN			RASI			LPSI			RLFC			RMFC			LLFC			LMFC			RMMAL			RLMAL			LMMAL			LLMAL			LAJC			LHJC			LKJC			RAJC			RHJC			RKJC			
		X1	Y1	Z1	X2	Y2	Z2	X3	Y3	Z3	X4	Y4	Z4	X5	Y5	Z5	X6	Y6	Z6	X7	Y7	Z7	X8	Y8	Z8	X9	Y9	Z9	X10	Y10	Z10	X11	Y11	Z11	X12	Y12	Z12	X13	Y13	Z13	X14	Y14	Z14	X15	Y15	Z15	X16	Y16	Z16	X17	Y17	Z17	X18	Y18	Z18	X19	Y19	Z19	X20	Y20	Z20	X21	Y21	Z21	X22	Y22	Z22	X23	Y23	Z23	X24	Y24	Z24	X25	Y25	Z25	X26	Y26	Z26	X27	Y27	Z27	X28	Y28	Z28	X29	Y29	Z29	X30	Y30	Z30	X31	Y31	Z31	X32	Y32	Z32	X33	Y33	Z33	X34	Y34	Z34	X35	Y35	Z35	X36	Y36	Z36	X37	Y37	Z37	X38	Y38	Z38	X39	Y39	Z39	X40	Y40	Z40	

202	0.804	3538.87939453125	-665.2630615233459	-1547.538452148438	2267.404296875	672.440673828125	1265.018676757812	2193.875	520.3377075195312	597.4412231445312	2253.6103515625	730.702392578125	1060.951293945312	2024.603271484375	816.6683959960938	683.3544311523438	2357.599609375	515.9584350585938	388.7150573730469	2602.918212890625	603.05859375	344.2297973632812	1893.216674804688	765.51171875	60.45435333251953	2002.076538085938	784.160400390625	324.984130859375	2116.5908203125	710.6976318359375	62.18261337280273	1875.03759765625	684.4375	64.98821258544922	2583.381591796875	544.9719848632812	122.9245147705078	2076.468994140625	540.7102661132812	690.9246215820312	2108.206298828125	843.051025390625	866.98291015625	2561.07373046875	641.3848266601562	107.969352722168	0	0	0	0	0	0	0	0	0	0	0	0	0	0	0	0	0	0	0	0	0	0	0	0	0	0	0	0	0	0	0	0	0	0	0	0	0	0	0	0	0	0	0	0	0	0	0	0	0	0	0	0	0	0	0	0	0	0	0	0	0	0	0	0	0	0	0	0	0	0	0	0	0	0	0	
203	0.8080000000000001	3538.87939453125	-665.2630615233459	-1547.538452148438	2261.178955078125	673.0193481445312	1266.007934570312	2182.541259765625	520.9478759765625	597.837646484375	2247.06298828125	731.029052734375	1062.13232421875	2020.233032226562	816.8164672851562	683.5125732421875	2344.16748046875	515.2382202148438	390.158935546875	2589.77685546875	603.6431884765625	347.3623352050781	1893.12939453125	765.4912109375	60.40267562866211	2000.680908203125	784.5034790039062	324.9566345214844	2116.521240234375	710.6666259765625	62.28617477416992	1874.983642578125	684.4371948242188	64.92543792724609	2570.172119140625	544.23388671875	126.2139892578125	2066.38623046875	540.7772216796875	692.6095581054688	2102.219970703125	843.18408203125	867.7717895507812	2547.709716796875	640.177490234375	110.7187042236328	0	0	0	0	0	0	0	0	0	0	0	0	0	0	0	0	0	0	0	0	0	0	0	0	0	0	0	0	0	0	0	0	0	0	0	0	0	0	0	0	0	0	0	0	0	0	0	0	0	0	0	0	0	0	0	0	0	0	0	0	0	0	0	0	0	0	0	0	0	0	0	0	0	0	0	
204	0.8120000000000001	3538.87939453125	-665.2630615233459	-1547.538452148438	2255.00537109375	673.5425415039062	1267.038330078125	2171.773681640625	521.5311279296875	598.3663940429688	2240.891357421875	731.3328857421875	1063.248168945312	2016.11767578125	816.995849609375	683.5946655273438	2330.888427734375	514.8532104492188	391.8696899414062	2577.2607421875	603.9483032226562	350.3150634765625	1893.1318359375	765.4917602539062	60.34713745117188	1998.868896484375	784.760009765625	324.8658447265625	2116.466796875	710.6599731445312	62.41863632202148	1874.953002929688	684.4844970703125	64.84041595458984	2557.002685546875	543.4596557617188	129.2953948974609	2056.91748046875	540.717529296875	694.759765625	2096.69580078125	839.55078125	868.6115112304688	2533.75732421875	638.5111694335938	113.284065246582	0	0	0	0	0	0	0	0	0	0	0	0	0	0	0	0	0	0	0	0	0	0	0	0	0	0	0	0	0	0	0	0	0	0	0	0	0	0	0	0	0	0	0	0	0	0	0	0	0	0	0	0	0	0	0	0	0	0	0	0	0	0	0	0	0	0	0	0	0	0	0	0	0	0	0	
205	0.8160000000000001	3538.87939453125	-665.2630615233459	-1547.538452148438	2248.742431640625	674.1192626953125	1268.299926757812	2160.760986328125	522.160400390625	599.1505737304688	2234.61865234375	731.5916137695312	1064.635009765625	2011.822265625	817.25634765625	683.7632446289062	2317.32763671875	514.6091918945312	393.8002624511719	2564.861328125	604.1685180664062	352.7142944335938	1893.1474609375	765.4874267578125	60.28387451171875	1997.731689453125	784.9874877929688	324.8974914550781	2116.456298828125	710.665283203125	62.49978256225586	1874.872314453125	684.5118408203125	64.71345520019531	2543.26708984375	542.2962036132812	132.3934020996094	2046.9541015625	540.5676879882812	696.9146118164062	2090.8056640625	839.2999877929688	869.3682250976562	2519.898193359375	637.9627075195312	115.9188537597656	0	0	0	0	0	0	0	0	0	0	0	0	0	0	0	0	0	0	0	0	0	0	0	0	0	0	0	0	0	0	0	0	0	0	0	0	0	0	0	0	0	0	0	0	0	0	0	0	0	0	0	0	0	0	0	0	0	0	0	0	0	0	0	0	0	0	0	0	0	0	0	0	0	0	0	
206	0.8200000000000001	3538.87939453125	-665.2630615233459	-1547.538452148438	2242.5693359375	674.6424560546875	1269.440673828125	2149.79541015625	522.9268798828125	599.8849487304688	2228.274169921875	731.8575439453125	1065.8681640625	2007.97021484375	817.246337890625	684.1104736328125	2303.841796875	514.5894775390625	395.9929809570312	2552.616455078125	604.275146484375	354.7761535644531	1893.046752929688	765.553955078125	60.25587463378906	1996.159301757812	784.7844848632812	324.5648498535156	2116.46435546875	710.5949096679688	62.62166595458984	1874.87255859375	684.5094604492188	64.71709442138672	2528.19482421875	541.9078369140625	134.9142913818359	2037.367919921875	540.5208129882812	699.1073608398438	2085.06884765625	840.4755249023438	870.332763671875	2505.767578125	637.4989013671875	118.1797714233398	0	0	0	0	0	0	0	0	0	0	0	0	0	0	0	0	0	0	0	0	0	0	0	0	0	0	0	0	0	0	0	0	0	0	0	0	0	0	0	0	0	0	0	0	0	0	0	0	0	0	0	0	0	0	0	0	0	0	0	0	0	0	0	0	0	0	0	0	0	0	0	0	0	0	0	
207	0.8240000000000001	3538.87939453125	-665.2630615233459	-1547.538452148438	2236.434326171875	675.1133422851562	1270.703369140625	2138.52880859375	523.7486572265625	600.956298828125	2222.093994140625	732.0543212890625	1067.335327148438	2003.89990234375	817.80419921875	684.5899658203125	2290.443115234375	514.7310180664062	398.2144470214844	2540.270263671875	604.3116455078125	356.2169799804688	1893.042602539062	765.553466796875	60.15367126464844	1995.052612304688	784.999755859375	324.4751892089844	2116.42529296875	710.6480712890625	62.78595352172852	1874.85693359375	684.534423828125	64.67196655273438	2513.228515625	541.1347045898438	137.1307983398438	2027.684814453125	540.3552856445312	701.5582885742188	2079.293701171875	841.1530151367188	871.5679931640625	2490.441650390625	636.59130859375	120.5202178955078	0	0	0	0	0	0	0	0	0	0	0	0	0	0	0	0	0	0	0	0	0	0	0	0	0	0	0	0	0	0	0	0	0	0	0	0	0	0	0	0	0	0	0	0	0	0	0	0	0	0	0	0	0	0	0	0	0	0	0	0	0	0	0	0	0	0	0	0	0	0	0	0	0	0	0	
208	0.8280000000000001	3538.87939453125	-665.2630615233459	-1547.538452148438	2230.255126953125	675.6342163085938	1272.079345703125	2127.83203125	524.4454956054688	602.2769775390625	2215.93505859375	732.2069702148438	1068.550659179688	2000.048950195312	817.88134765625	684.9910888671875	2276.920654296875	514.9999389648438	400.551513671875	2527.958984375	604.0868530273438	357.5657348632812	1893.043334960938	765.5523681640625	60.15217590332031	1993.68359375	785.3733520507812	324.3587646484375	2116.41064453125	710.6400756835938	63.00455474853516	1874.77880859375	684.5701904296875	64.56034088134766	2497.686279296875	540.4642944335938	138.9518280029297	2018.608154296875	540.0682983398438	704.402099609375	2073.567626953125	841.8770751953125	872.8057861328125	2475.117431640625	636.0567016601562	122.3995132446289	0	0	0	0	0	0	0	0	0	0	0	0	0	0	0	0	0	0	0	0	0	0	0	0	0	0	0	0	0	0	0	0	0	0	0	0	0	0	0	0	0	0	0	0	0	0	0	0	0	0	0	0	0	0	0	0	0	0	0	0	0	0	0	0	0	0	0	0	0	0	0	0	0	0	0	
209	0.8320000000000001	3538.87939453125	-665.2630615233459	-1547.538452148438	2224.19873046875	676.0509033203125	1273.4072265625	2116.959228515625	525.1258544921875	603.6190185546875	2209.7197265625	732.4052124023438	1070.153442382812	1996.270141601562	818.2528076171875	685.3848876953125	2263.450439453125	515.631103515625	403.0362548828125	2515.657958984375	603.7199096679688	358.6522827148438	1892.961547851562	765.5269165039062	60.0492057800293	1992.556030273438	785.7584228515625	324.3830261230469	2116.3173828125	710.5836181640625	63.14856719970703	1874.772216796875	684.580322265625	64.525634765625	2481.30908203125	540.2402954101562	140.2941589355469	2008.894897460938	539.8472900390625	707.1826171875	2067.820068359375	842.8722534179688	873.934326171875	2460.125244140625	635.66748046875	123.6975555419922	0	0	0	0	0	0	0	0	0	0	0	0	0	0	0	0	0	0	0	0	0	0	0	0	0	0	0	0	0	0	0	0	0	0	0	0	0	0	0	0	0	0	0	0	0	0	0	0	0	0	0	0	0	0	0	0	0	0	0	0	0	0	0	0	0	0	0	0	0	0	0	0	0	0	0	
210	0.836	3538.87939453125	-665.2630615233459	-1547.538452148438	2218.059814453125	676.5200805664062	1274.873291015625	2105.878173828125	525.8607788085938	605.1878051757812	2203.5390625	732.6600952148438	1071.5615234375	1992.42822265625	818.2455444335938	685.8199462890625	2249.93505859375	516.2542724609375	405.3774108886719	2502.869140625	603.4144897460938	359.4335632324219	1892.958129882812	765.5247192382812	60.04694366455078	1991.556030273438	785.807373046875	324.3309631347656	2116.48828125	710.7188720703125	63.07182693481445	1874.765014648438	684.592041015625	64.52088928222656	2465.218017578125	539.665771484375	141.6198577880859	1999.405639648438	539.9015502929688	710.0192260742188	2062.104736328125	843.69189453125	875.1251831054688	2445.4716796875	635.5819702148438	125.5645904541016	0	0	0	0	0	0	0	0	0	0	0	0	0	0	0	0	0	0	0	0	0	0	0	0	0	0	0	0	0	0	0	0	0	0	0	0	0	0	0	0	0	0	0	0	0	0	0	0	0	0	0	0	0	0	0	0	0	0	0	0	0	0	0	0	0	0	0	0	0	0	0	0	0	0	0	
211	0.84	3538.87939453125	-665.2630615233459	-1547.538452148438	2211.919189453125	676.8883056640625	1276.3583984375	2094.98388671875	526.50732421875	606.8809814453125	2197.514404296875	732.8460693359375	1073.234375	1988.622802734375	818.7244873046875	686.4658813476562	2236.266845703125	516.9423828125	407.664794921875	2488.229736328125	602.9481201171875	359.5790100097656	1892.95849609375	765.5350341796875	60.00966262817383	1990.290405273438	785.845703125	324.3425598144531	2116.251953125	710.5591430664062	63.66492080688477	1874.695434570312	684.6054077148438	64.51601409912109	2449.001708984375	539.5131225585938	142.7352142333984	1990.422485351562	539.34423828125	713.2969360351562	2056.60107421875	844.006103515625	876.2808837890625	2431.135498046875	635.6044311523438	126.5850677490234	0	0	0	0	0	0	0	0	0	0	0	0	0	0	0	0	0	0	0	0	0	0	0	0	0	0	0	0	0	0	0	0	0	0	0	0	0	0	0	0	0	0	0	0	0	0	0	0	0	0	0	0	0	0	0	0	0	0	0	0	0	0	0	0	0	0	0	0	0	0	0	0	0	0	0	
212	0.844	3538.87939453125	-665.2630615233459	-1547.538452148438	2205.82666015625	677.30517578125	1277.78564453125	2084.188232421875	526.966064453125	608.7836303710938	2191.230224609375	733.0557250976562	1074.604736328125	1985.12060546875	818.7520751953125	686.968017578125	2222.6318359375	517.5787353515625	409.7404479980469	2477.01806640625	602.8056640625	359.8840637207031	1892.870483398438	765.5045776367188	59.99563598632812	1989.446899414062	786.0088500976562	324.3372192382812	2116.258544921875	710.5537719726562	63.95486068725586	1874.684692382812	684.7297973632812	64.47318267822266	2432.885498046875	539.08740234375	143.4833526611328	1981.29541015625	539.164306640625	716.6655883789062	2051.083740234375	844.3687744140625	877.6087036132812	2415.727294921875	635.542724609375	127.3299713134766	0	0	0	0	0	0	0	0	0	0	0	0	0	0	0	0	0	0	0	0	0	0	0	0	0	0	0	0	0	0	0	0	0	0	0	0	0	0	0	0	0	0	0	0	0	0	0	0	0	0	0	0	0	0	0	0	0	0	0	0	0	0	0	0	0	0	0	0	0	0	0	0	0	0	0	
